{"asset":{"generator":"3D Builder","version":"2.0"},"scene":0,"scenes":[{"nodes":[0]}],"nodes":[{"mesh":0,"matrix":[0.43999993801116943,0,0,0,0,-5.24520800126993E-8,-0.43999987840652466,0,0,0.43999987840652466,-5.24520800126993E-8,0,0.000966111256275326,-9.5115391118838488E-9,-0.079788565635681152,1]}],"meshes":[{"primitives":[{"attributes":{"POSITION":0},"mode":4,"indices":1,"material":0}]}],"materials":[{"name":"Metallic","pbrMetallicRoughness":{"baseColorFactor":[0.21586053073406219,0.21586053073406219,0.21586053073406219,1],"metallicFactor":0,"roughnessFactor":1},"alphaMode":"OPAQUE"}],"accessors":[{"bufferView":0,"byteOffset":0,"count":55177,"componentType":5126,"type":"VEC3","min":[-0.23973624408245087,-0.47346782684326172,-9.99999993922529E-9],"max":[0.23405322432518005,0.0041232099756598473,0.5]},{"bufferView":1,"byteOffset":0,"count":331590,"componentType":5125,"type":"SCALAR"}],"bufferViews":[{"buffer":0,"byteOffset":0,"byteLength":662124,"byteStride":12,"target":34962},{"buffer":0,"byteOffset":662124,"byteLength":1326360,"target":34963}],"buffers":[{"byteLength":1988484,"uri":"familia.bin"}]}