# Alias OBJ Model File
# Exported from SketchUp, (c) 2000-2012 Trimble Navigation Limited
# File units = meters

mtllib https://raw.githubusercontent.com/jds-alves/objectsAr/master/Caixa/caixa.mtl

g Mesh1 Model

usemtl FrontColor
v 0 0 -0.5
vt 0 19.685
vn 0 -1 -0
v 0.05 0 -0.45
vt -1.9685 17.7165
v 0 0 -0
vt 0 0
f 1/1/1 2/2/1 3/3/1

v 0.5 0 -0.5
vt -19.685 19.685
f 2/2/1 1/1/1 4/4/1

usemtl BackColor
vn -0 1 0
f 3/3/2 2/2/2 1/1/2

usemtl FrontColor
v 0.05 0 -0.05
vt -1.9685 1.9685
f 5/5/1 3/3/1 2/2/1

v 0.5 0 -0
vt -19.685 0
f 3/3/1 5/5/1 6/6/1

usemtl BackColor
f 6/6/2 5/5/2 3/3/2

usemtl FrontColor
v 0.45 0 -0.05
vt -17.7165 1.9685
f 6/6/1 5/5/1 7/7/1

usemtl BackColor
f 7/7/2 5/5/2 6/6/2

usemtl FrontColor
v 0.05 0.22 -0.05
vt -1.9685 8.66142
vn -6.64166e-18 3.3426e-17 -1
vt -17.7165 -6.57991e-17
vt -1.9685 -6.57991e-17
f 8/8/3 7/9/3 5/10/3

v 0.45 0.22 -0.05
vt -17.7165 8.66142
f 7/9/3 8/8/3 9/11/3

usemtl BackColor
vn 6.64166e-18 -3.3426e-17 1
f 5/10/4 7/9/4 8/8/4

f 9/11/4 8/8/4 7/9/4

usemtl FrontColor
v 0.08 0.22 -0.05
vt -3.14961 8.66142
f 9/11/3 8/8/3 10/12/3

usemtl BackColor
f 10/12/4 8/8/4 9/11/4

usemtl FrontColor
vt 1.9685 1.9685
vn 0 1 -0
v 0.08 0.22 5.07594e-18
vt 3.14961 -1.9984e-16
vt 3.14961 1.9685
f 8/13/5 11/14/5 10/15/5

v 0 0.22 -0
f 8/13/5 12/3/5 11/14/5

v 2.81997e-18 0.22 -0.45
vt 1.11022e-16 17.7165
f 12/3/5 8/13/5 13/16/5

usemtl BackColor
vn -0 -1 0
f 13/16/6 8/13/6 12/3/6

usemtl FrontColor
v 0.05 0.22 -0.45
vt 1.9685 17.7165
f 13/16/5 8/13/5 14/17/5

usemtl BackColor
f 14/17/6 8/13/6 13/16/6

usemtl FrontColor
vt 1.9685 -2.52323e-17
vn 1 1.2818e-17 -7.04992e-18
vt 17.7165 8.66142
vt 1.9685 8.66142
f 5/18/7 14/19/7 8/20/7

vt 17.7165 -2.52323e-17
f 14/19/7 5/18/7 2/21/7

usemtl BackColor
vn -1 -1.2818e-17 7.04992e-18
f 8/20/8 14/19/8 5/18/8

f 2/21/8 5/18/8 14/19/8

f 2/2/2 3/3/2 5/5/2

usemtl FrontColor
vt 1.9685 1.06144e-15
vn -4.77962e-17 5.99126e-17 1
v 0.45 0.22 -0.45
f 2/22/9 15/19/9 14/20/9

v 0.45 0 -0.45
vt 17.7165 1.06144e-15
f 15/19/9 2/22/9 16/23/9

usemtl BackColor
vn 4.77962e-17 -5.99126e-17 -1
f 16/23/10 2/22/10 15/19/10

usemtl FrontColor
vt -17.7165 17.7165
f 2/2/1 4/4/1 16/24/1

usemtl BackColor
f 4/4/2 1/1/2 2/2/2

usemtl Color_E05
v 2.81997e-18 0.25 -0.5
vt -1.11022e-16 9.84252
vn 0 0 -1
f 17/25/11 4/6/11 1/3/11

v 0.42 0.22 -0.5
vt -16.5354 8.66142
f 4/6/11 17/25/11 18/26/11

usemtl BackColor
vn -0 -0 1
f 1/3/12 4/6/12 17/25/12

f 18/26/12 17/25/12 4/6/12

usemtl Color_E05
v 0.42 0.25 -0.5
vt -16.5354 9.84252
f 18/26/11 17/25/11 19/27/11

usemtl BackColor
f 19/27/12 17/25/12 18/26/12

usemtl FrontColor
vt 1.11022e-16 19.685
v 0.42 0.25 -0.45
vt 16.5354 17.7165
vt 16.5354 19.685
f 17/28/5 20/29/5 19/30/5

v 0 0.25 -0.45
vt 0 17.7165
f 20/29/5 17/28/5 21/31/5

usemtl BackColor
f 21/31/6 17/28/6 20/29/6

usemtl Color_A05
vt -19.685 -1.29845e-34
vn -1 3.97283e-18 -1.66031e-18
vt -17.7165 9.84252
vt -19.685 9.84252
f 1/32/13 21/33/13 17/34/13

f 1/32/13 13/11/13 21/33/13

f 3/3/13 13/11/13 1/32/13

vt 0 8.66142
f 13/11/13 3/3/13 12/35/13

usemtl BackColor
vn 1 -3.97283e-18 1.66031e-18
f 12/35/14 3/3/14 13/11/14

usemtl Color_G07
vn 0 0 1
vt 3.14961 8.66142
f 12/35/15 3/3/15 11/36/15

usemtl BackColor
vn -0 -0 -1
f 11/36/16 3/3/16 12/35/16

usemtl Color_G07
v 0.5 0.25 -0
vt 19.685 9.84252
f 3/3/15 22/37/15 11/36/15

vt 19.685 0
f 22/37/15 3/3/15 6/38/15

usemtl BackColor
f 6/38/16 3/3/16 22/37/16

f 11/36/16 22/37/16 3/3/16

usemtl Color_G07
v 0.08 0.25 5.07594e-18
vt 3.14961 9.84252
f 11/36/15 22/37/15 23/39/15

usemtl BackColor
f 23/39/16 22/37/16 11/36/16

usemtl FrontColor
v 0.08 0.25 -0.05
f 22/38/5 24/15/5 23/14/5

v 0.45 0.25 -0.05
vt 17.7165 1.9685
f 24/15/5 22/38/5 25/40/5

usemtl BackColor
f 23/14/6 24/15/6 22/38/6

usemtl FrontColor
vt -1.9685 9.84252
vn -1 9.39989e-17 -1.69198e-16
vt -3.33067e-16 8.66142
vt -3.33067e-16 9.84252
f 24/41/17 11/42/17 23/43/17

f 11/42/17 24/41/17 10/8/17

usemtl BackColor
vn 1 -9.39989e-17 1.69198e-16
f 23/43/18 11/42/18 24/41/18

f 10/8/18 24/41/18 11/42/18

usemtl FrontColor
vt -3.14961 9.84252
f 9/11/3 10/12/3 24/44/3

usemtl BackColor
f 24/44/4 10/12/4 9/11/4

usemtl FrontColor
f 9/11/3 24/44/3 25/33/3

usemtl BackColor
f 25/33/4 24/44/4 9/11/4

f 25/40/6 22/38/6 24/15/6

usemtl FrontColor
v 0.5 0.25 -0.05
vt 19.685 1.9685
f 25/40/5 22/38/5 26/45/5

usemtl BackColor
f 26/45/6 22/38/6 25/40/6

usemtl Color_I06
vt 1.9685 9.84252
vn 1 0 -0
vt 0 9.84252
v 0.5 0.22 -0.05
f 26/46/19 22/47/19 27/20/19

usemtl BackColor
vn -1 -0 0
f 27/20/20 22/47/20 26/46/20

usemtl Color_I06
f 6/3/19 27/20/19 22/47/19

f 27/20/19 6/3/19 4/38/19

usemtl BackColor
f 22/47/20 27/20/20 6/3/20

f 4/38/20 6/3/20 27/20/20

usemtl FrontColor
f 6/6/1 7/7/1 4/4/1

usemtl BackColor
f 4/4/2 7/7/2 6/6/2

usemtl FrontColor
f 16/24/1 4/4/1 7/7/1

usemtl BackColor
f 16/24/2 4/4/2 2/2/2

f 7/7/2 4/4/2 16/24/2

usemtl FrontColor
vt -1.9685 -3.63346e-15
vn -1 -2.05088e-16 -1.12799e-16
vt -17.7165 -3.63346e-15
f 7/48/21 15/11/21 16/49/21

f 15/11/21 7/48/21 9/8/21

usemtl BackColor
vn 1 2.05088e-16 1.12799e-16
f 9/8/22 7/48/22 15/11/22

f 16/49/22 15/11/22 7/48/22

usemtl FrontColor
vt 17.7165 17.7165
f 27/45/5 15/50/5 9/40/5

v 0.5 0.22 -0.5
vt 19.685 19.685
f 28/51/5 15/50/5 27/45/5

v 0.42 0.22 -0.45
f 28/51/5 29/29/5 15/50/5

f 29/29/5 28/51/5 18/30/5

usemtl BackColor
f 18/30/6 28/51/6 29/29/6

usemtl Color_E05
vt -19.685 8.66142
f 28/52/11 4/6/11 18/26/11

usemtl Color_I06
vt 19.685 8.66142
f 27/20/19 4/38/19 28/53/19

usemtl BackColor
f 28/53/20 4/38/20 27/20/20

f 18/26/12 4/6/12 28/52/12

f 27/45/6 15/50/6 28/51/6

f 9/40/6 15/50/6 27/45/6

usemtl FrontColor
f 25/33/11 27/52/11 9/11/11

f 27/52/11 25/33/11 26/34/11

usemtl BackColor
f 9/11/12 27/52/12 25/33/12

f 26/34/12 25/33/12 27/52/12

f 15/50/6 29/29/6 28/51/6

usemtl FrontColor
vt 16.5354 8.66142
f 14/20/9 15/19/9 29/54/9

usemtl BackColor
f 14/20/10 15/19/10 2/22/10

f 29/54/10 15/19/10 14/20/10

usemtl FrontColor
vt 16.5354 9.84252
f 14/20/9 29/54/9 20/55/9

usemtl BackColor
f 20/55/10 29/54/10 14/20/10

usemtl FrontColor
vn 1 0 -1.80478e-15
vt 17.7165 9.84252
f 18/53/23 20/56/23 29/19/23

f 20/56/23 18/53/23 19/37/23

usemtl BackColor
vn -1 -0 1.80478e-15
f 29/19/24 20/56/24 18/53/24

f 19/37/24 18/53/24 20/56/24

f 19/30/6 20/29/6 17/28/6

usemtl FrontColor
vt -7.35761e-16 8.66142
f 14/20/9 20/55/9 13/57/9

usemtl BackColor
f 13/57/10 20/55/10 14/20/10

usemtl FrontColor
vt -8.46784e-16 9.84252
f 13/57/9 20/55/9 21/58/9

usemtl BackColor
f 21/58/10 20/55/10 13/57/10

f 21/33/14 13/11/14 1/32/14

f 1/32/14 13/11/14 3/3/14

f 17/34/14 21/33/14 1/32/14

f 10/15/6 11/14/6 8/13/6

f 11/14/6 12/3/6 8/13/6

g Mesh2 Model

usemtl FrontColor
v 0 0.5 -0
v 0.05 0.5 -0.05
v 0 0.5 -0.5
f 30/3/5 31/13/5 32/1/5

v 0.5 0.5 -0
f 31/13/5 30/3/5 33/38/5

usemtl BackColor
f 32/1/6 31/13/6 30/3/6

usemtl FrontColor
v 0.05 0.5 -0.45
f 34/17/5 32/1/5 31/13/5

v 0.5 0.5 -0.5
f 32/1/5 34/17/5 35/51/5

usemtl BackColor
f 35/51/6 34/17/6 32/1/6

usemtl FrontColor
v 0.45 0.5 -0.45
f 35/51/5 34/17/5 36/50/5

usemtl BackColor
f 36/50/6 34/17/6 35/51/6

usemtl FrontColor
vt 1.9685 19.685
v 0.45 0.28 -0.45
vt 17.7165 11.0236
vt 17.7165 19.685
f 34/59/15 37/60/15 36/61/15

v 0.05 0.28 -0.45
vt 1.9685 11.0236
f 37/60/15 34/59/15 38/62/15

usemtl BackColor
f 38/62/16 34/59/16 37/60/16

usemtl FrontColor
vn 1 -1.00357e-16 -6.67283e-17
v 0.05 0.28 -0.42
vt 16.5354 11.0236
f 34/61/25 39/63/25 38/60/25

f 31/59/25 39/63/25 34/61/25

v 0.05 0.25 -0.42
f 31/59/25 40/55/25 39/63/25

v 0.05 0.28 -0.05
f 41/62/25 40/55/25 31/59/25

v 0.05 0.28 -2.81997e-18
vt -2.03325e-17 11.0236
f 42/64/25 40/55/25 41/62/25

v 0.05 0.25 -2.81997e-18
vt -2.03325e-17 9.84252
f 40/55/25 42/64/25 43/65/25

usemtl BackColor
vn -1 1.00357e-16 6.67283e-17
f 43/65/26 42/64/26 40/55/26

usemtl Color_G07
vn -2.16898e-18 -6.7029e-18 1
v 0 0.25 -2.81997e-18
vt -2.40805e-34 9.84252
f 42/62/27 44/66/27 43/46/27

f 44/66/27 42/62/27 30/1/27

usemtl BackColor
vn 2.16898e-18 6.7029e-18 -1
f 43/46/28 44/66/28 42/62/28

usemtl FrontColor
vt 0 1.11022e-16
vt -1.9685 16.5354
vt -1.9685 1.11022e-16
f 44/67/1 40/68/1 43/69/1

v -5.41434e-17 0.25 -0.42
vt 2.13163e-15 16.5354
f 40/68/1 44/67/1 45/70/1

usemtl BackColor
f 45/70/2 44/67/2 40/68/2

usemtl Color_A05
vn -1 9.47748e-17 4.54591e-17
v -5.41434e-17 0.28 -0.42
vt -16.5354 11.0236
f 45/27/29 44/25/29 46/71/29

usemtl BackColor
vn 1 -9.47748e-17 -4.54591e-17
f 46/71/30 44/25/30 45/27/30

usemtl Color_A05
f 44/25/29 32/4/29 46/71/29

f 32/4/29 44/25/29 30/1/29

usemtl BackColor
f 30/1/30 44/25/30 32/4/30

f 30/1/28 42/62/28 44/66/28

usemtl Color_G07
f 30/1/27 42/62/27 33/51/27

usemtl BackColor
f 33/51/28 42/62/28 30/1/28

usemtl Color_G07
v 0.5 0.28 -0
vt 19.685 11.0236
f 33/51/27 42/62/27 47/72/27

usemtl BackColor
f 47/72/28 42/62/28 33/51/28

usemtl FrontColor
vt -1.9685 2.41049e-15
vn -7.40946e-17 -1 -2.08595e-16
v 0.45 0.28 -0.05
vt -19.685 2.29947e-15
f 42/73/31 48/7/31 47/74/31

f 48/7/31 42/73/31 41/5/31

usemtl BackColor
vn 7.40946e-17 1 2.08595e-16
f 41/5/32 42/73/32 48/7/32

f 41/62/26 40/55/26 42/64/26

f 31/59/26 40/55/26 41/62/26

f 39/63/26 40/55/26 31/59/26

usemtl FrontColor
vn 1.80478e-15 0 -1
vt 3.19744e-14 11.0236
vt -1.9685 11.0236
f 40/41/33 46/75/33 39/76/33

vt 3.19744e-14 9.84252
f 46/75/33 40/41/33 45/77/33

usemtl BackColor
vn -1.80478e-15 -0 1
f 45/77/34 40/41/34 46/75/34

f 39/76/34 46/75/34 40/41/34

usemtl FrontColor
v 0 0.28 -0.5
vt -1.13421e-15 19.685
vn 1.02889e-16 -1 -3.03608e-17
vt 9.97416e-16 16.5354
f 49/78/35 39/68/35 46/79/35

f 39/68/35 49/78/35 38/2/35

usemtl BackColor
vn -1.02889e-16 1 3.03608e-17
f 46/79/36 39/68/36 49/78/36

f 38/2/36 49/78/36 39/68/36

usemtl FrontColor
v 0.45 0.28 -0.5
vt -17.7165 19.685
f 38/2/35 49/78/35 50/80/35

usemtl BackColor
f 50/80/36 49/78/36 38/2/36

usemtl Color_E05
vt 1.47683e-15 19.685
vn 7.50231e-17 -1.76259e-16 -1
vt -17.7165 11.0236
vt 1.47683e-15 11.0236
f 32/81/37 50/82/37 49/83/37

f 35/4/37 50/82/37 32/81/37

v 0.5 0.25 -0.5
f 51/34/37 50/82/37 35/4/37

v 0.45 0.25 -0.5
f 50/82/37 51/34/37 52/33/37

usemtl BackColor
vn -7.50231e-17 1.76259e-16 1
f 52/33/38 51/34/38 50/82/38

usemtl FrontColor
v 0.45 0.25 -0.08
vt -17.7165 3.14961
f 51/4/1 53/84/1 52/80/1

v 0.5 0.25 -0.08
vt -19.685 3.14961
f 53/84/1 51/4/1 54/85/1

usemtl BackColor
f 52/80/2 53/84/2 51/4/2

usemtl FrontColor
vn -1 8.77978e-17 9.75398e-17
f 53/44/39 37/82/39 52/34/39

f 53/44/39 36/80/39 37/82/39

v 0.45 0.28 -0.08
vt -3.14961 11.0236
f 55/86/39 36/80/39 53/44/39

v 0.45 0.5 -0.05
vt -1.9685 19.685
f 55/86/39 56/87/39 36/80/39

f 56/87/39 55/86/39 48/76/39

usemtl BackColor
vn 1 -8.77978e-17 -9.75398e-17
f 48/76/40 55/86/40 56/87/40

usemtl FrontColor
v 0.5 0.28 -0.08
f 57/85/31 48/7/31 55/84/31

f 47/74/31 48/7/31 57/85/31

usemtl BackColor
f 47/74/32 48/7/32 42/73/32

f 57/85/32 48/7/32 47/74/32

f 55/84/32 48/7/32 57/85/32

usemtl FrontColor
f 53/56/15 57/72/15 55/60/15

f 57/72/15 53/56/15 54/37/15

usemtl BackColor
f 54/37/16 53/56/16 57/72/16

f 54/85/2 51/4/2 53/84/2

usemtl Color_I06
vn 1 -9.96165e-17 -6.49276e-17
vt 3.14961 11.0236
f 51/37/41 57/88/41 54/39/41

f 35/51/41 57/88/41 51/37/41

vt -1.2781e-15 19.685
f 33/89/41 57/88/41 35/51/41

vt -1.2781e-15 11.0236
f 57/88/41 33/89/41 47/90/41

usemtl BackColor
vn -1 9.96165e-17 6.49276e-17
f 47/90/42 33/89/42 57/88/42

f 35/51/42 57/88/42 33/89/42

f 51/37/42 57/88/42 35/51/42

f 54/39/42 57/88/42 51/37/42

f 35/4/38 50/82/38 51/34/38

f 32/81/38 50/82/38 35/4/38

f 49/83/38 50/82/38 32/81/38

usemtl Color_A05
vt -19.685 11.0236
f 46/71/29 32/4/29 49/91/29

usemtl BackColor
f 46/71/30 32/4/30 44/25/30

f 49/91/30 32/4/30 46/71/30

usemtl FrontColor
f 35/51/5 36/50/5 33/38/5

usemtl BackColor
f 33/38/6 36/50/6 35/51/6

usemtl FrontColor
f 56/40/5 33/38/5 36/50/5

f 31/13/5 33/38/5 56/40/5

usemtl BackColor
f 33/38/6 30/3/6 31/13/6

f 56/40/6 33/38/6 31/13/6

f 36/50/6 33/38/6 56/40/6

f 36/80/40 56/87/40 55/86/40

f 53/44/40 36/80/40 55/86/40

f 37/82/40 36/80/40 53/44/40

f 36/61/16 37/60/16 34/59/16

f 52/34/40 37/82/40 53/44/40

usemtl FrontColor
f 52/34/39 37/82/39 50/91/39

usemtl BackColor
f 50/91/40 37/82/40 52/34/40

usemtl FrontColor
f 38/2/35 50/80/35 37/24/35

usemtl BackColor
f 37/24/36 50/80/36 38/2/36

f 55/60/16 57/72/16 53/56/16

usemtl FrontColor
vn 0 -2.56361e-17 -1
f 48/82/43 31/87/43 56/80/43

f 31/87/43 48/82/43 41/76/43

usemtl BackColor
vn -0 2.56361e-17 1
f 41/76/44 48/82/44 31/87/44

f 56/80/44 31/87/44 48/82/44

f 38/60/26 39/63/26 34/61/26

f 34/61/26 39/63/26 31/59/26

f 31/13/6 32/1/6 34/17/6

f 43/69/2 40/68/2 44/67/2

g Mesh3 Model

l 1 3

l 4 1

l 6 4

l 3 6

l 3 12

l 12 11

l 13 12

l 13 21

l 14 13

l 2 14

l 16 2

l 7 16

l 5 7

l 2 5

l 5 8

l 14 8

l 8 10

l 10 24

l 10 11

l 11 23

l 23 22

l 23 24

l 24 25

l 25 26

l 9 25

l 7 9

l 27 9

l 27 26

l 28 27

l 4 28

l 28 18

l 18 29

l 18 19

l 19 20

l 19 17

l 1 17

l 17 21

l 20 21

l 29 20

l 15 29

l 16 15

l 15 9

l 22 26

l 6 22

g Mesh4 Model

l 33 35

l 30 33

l 32 30

l 35 32

l 51 35

l 54 51

l 53 54

l 52 53

l 51 52

l 52 50

l 49 50

l 49 32

l 49 46

l 46 39

l 45 46

l 44 45

l 44 30

l 44 43

l 43 40

l 43 42

l 47 42

l 47 33

l 47 57

l 57 55

l 54 57

l 53 55

l 48 55

l 48 56

l 48 41

l 41 31

l 41 42

l 34 31

l 36 34

l 56 36

l 31 56

l 37 36

l 38 37

l 38 34

l 38 39

l 40 39

l 40 45

l 37 50

