{
  "accessors": [
    {
      "name": "Cat_1_0_positions",
      "componentType": 5126,
      "count": 36530,
      "min": [
        -6.277599811553955,
        -22.255399703979492,
        0.0052999998442828655
      ],
      "max": [
        6.277599811553955,
        38.627899169921875,
        37.61259841918945
      ],
      "type": "VEC3",
      "bufferView": 0,
      "byteOffset": 0
    },
    {
      "name": "Cat_1_0_normals",
      "componentType": 5126,
      "count": 36530,
      "min": [
        -0.9999986290931702,
        -0.9999960660934448,
        -0.9999998807907104
      ],
      "max": [
        0.9999986290931702,
        0.9999726414680481,
        1
      ],
      "type": "VEC3",
      "bufferView": 1,
      "byteOffset": 0
    },
    {
      "name": "Cat_1_0_texcoords",
      "componentType": 5126,
      "count": 36530,
      "min": [
        0.006800000090152025,
        0.015799999237060547
      ],
      "max": [
        0.9843000173568726,
        0.9688000082969666
      ],
      "type": "VEC2",
      "bufferView": 2,
      "byteOffset": 0
    },
    {
      "name": "Cat_1_0_indices",
      "componentType": 5123,
      "count": 211728,
      "min": [
        0
      ],
      "max": [
        36529
      ],
      "type": "SCALAR",
      "bufferView": 3,
      "byteOffset": 0
    }
  ],
  "asset": {
    "generator": "obj2gltf",
    "version": "2.0"
  },
  "buffers": [
    {
      "name": "Gato",
      "byteLength": 1592416,
      "uri": "Gato.bin"
    }
  ],
  "bufferViews": [
    {
      "name": "bufferView_0",
      "buffer": 0,
      "byteLength": 438360,
      "byteOffset": 0,
      "byteStride": 12,
      "target": 34962
    },
    {
      "name": "bufferView_1",
      "buffer": 0,
      "byteLength": 438360,
      "byteOffset": 438360,
      "byteStride": 12,
      "target": 34962
    },
    {
      "name": "bufferView_2",
      "buffer": 0,
      "byteLength": 292240,
      "byteOffset": 876720,
      "byteStride": 8,
      "target": 34962
    },
    {
      "name": "bufferView_3",
      "buffer": 0,
      "byteLength": 423456,
      "byteOffset": 1168960,
      "target": 34963
    }
  ],
  "images": [
    {
      "name": "Cat_diffuse",
      "uri": "Cat_diffuse.jpg"
    },
    {
      "name": "Cat_bump",
      "uri": "Cat_bump.jpg"
    }
  ],
  "materials": [
    {
      "name": "Cat",
      "pbrMetallicRoughness": {
        "baseColorTexture": {
          "index": 0
        },
        "baseColorFactor": [
          1,
          1,
          1,
          1
        ],
        "metallicFactor": 0,
        "roughnessFactor": 0.99
      },
      "normalTexture": {
        "index": 1
      },
      "emissiveFactor": [
        0,
        0,
        0
      ],
      "alphaMode": "OPAQUE",
      "doubleSided": false
    }
  ],
  "meshes": [
    {
      "name": "Cat_1",
      "primitives": [
        {
          "attributes": {
            "POSITION": 0,
            "NORMAL": 1,
            "TEXCOORD_0": 2
          },
          "indices": 3,
          "material": 0,
          "mode": 4
        }
      ]
    }
  ],
  "nodes": [
    {
      "name": "Cat",
      "mesh": 0
    }
  ],
  "samplers": [
    {
      "wrapS": 10497,
      "wrapT": 10497
    }
  ],
  "scene": 0,
  "scenes": [
    {
      "nodes": [
        0
      ]
    }
  ],
  "textures": [
    {
      "name": "Cat_diffuse",
      "sampler": 0,
      "source": 0
    },
    {
      "name": "Cat_bump",
      "sampler": 0,
      "source": 1
    }
  ]
}
